<svg width="47" height="49" viewBox="0 0 47 49" fill="none" xmlns="http://www.w3.org/2000/svg">
<g clip-path="url(#clip0_98_206)">
<path d="M46.1358 31.2316L41.3609 37.8009C39.5816 40.2489 36.1539 40.7915 33.7049 39.013L22.0566 30.5536L46.1358 31.2316Z" fill="white"/>
<path d="M0.864258 17.7684L5.63915 11.1991C7.41845 8.75117 10.8461 8.20851 13.2951 9.98703L24.9434 18.4464L0.864258 17.7684Z" fill="white"/>
<path d="M37.8542 43.2452L30.1283 45.7544C27.2493 46.6895 24.1572 45.1146 23.2217 42.2369L18.7725 28.5493L37.8542 43.2452Z" fill="white"/>
<path d="M9.14551 5.75484L16.8714 3.24558C19.7504 2.31054 22.8425 3.88543 23.778 6.76315L28.2272 20.4507L9.14551 5.75484Z" fill="white"/>
<path d="M24.0899 48.0987L16.364 45.5895C13.485 44.6544 11.9095 41.5636 12.8449 38.6859L17.2942 24.9983L24.0899 48.0987Z" fill="white"/>
<path d="M22.9102 0.901276L30.6361 3.41053C33.515 4.34557 35.0906 7.43641 34.1551 10.3142L29.7059 24.0018L22.9102 0.901276Z" fill="white"/>
<path d="M10.1004 43.9384L5.3255 37.3691C3.5462 34.9212 4.08911 31.4949 6.5381 29.7164L18.1864 21.257L10.1004 43.9384Z" fill="white"/>
<path d="M36.8995 5.06165L41.6744 11.6309C43.4537 14.0789 42.9107 17.5051 40.4618 19.2837L28.8135 27.7431L36.8995 5.06165Z" fill="white"/>
<path d="M1.22852 32.3532V24.2331C1.22852 21.2073 3.68246 18.7544 6.7096 18.7544H21.1077L1.22852 32.3532Z" fill="white"/>
<path d="M45.7708 16.6468V24.7669C45.7708 27.7927 43.3168 30.2457 40.2897 30.2457H25.8916L45.7708 16.6468Z" fill="white"/>
</g>
<defs>
<clipPath id="clip0_98_206">
<rect width="47" height="49" fill="white"/>
</clipPath>
</defs>
</svg>
